<svg xmlns="http://www.w3.org/2000/svg" version="1.1" xmlns:xlink="http://www.w3.org/1999/xlink" xmlns:svgjs="http://svgjs.dev/svgjs" width="1000" height="999" viewBox="0 0 1000 999"><g transform="matrix(1,0,0,1,-0.215743440233382,-0.21552769679306039)"><svg viewBox="0 0 343 343" data-background-color="#051726" preserveAspectRatio="xMidYMid meet" height="999" width="1000" xmlns="http://www.w3.org/2000/svg" xmlns:xlink="http://www.w3.org/1999/xlink"><g id="tight-bounds" transform="matrix(1,0,0,1,0.0740000000000407,0.07400000000001228)"><svg viewBox="0 0 342.85155851775386 342.85155851775386" height="342.85155851775386" width="342.85155851775386"><g><svg></svg></g><g><svg viewBox="0 0 342.85155851775386 342.85155851775386" height="342.85155851775386" width="342.85155851775386"><g><path d="M0 171.426c0-94.676 76.75-171.426 171.426-171.426 94.676 0 171.426 76.75 171.426 171.426 0 94.676-76.75 171.426-171.426 171.426-94.676 0-171.426-76.75-171.426-171.426zM171.426 338.83c92.455 0 167.404-74.949 167.404-167.404 0-92.455-74.949-167.404-167.404-167.404-92.455 0-167.404 74.949-167.404 167.404 0 92.455 74.949 167.404 167.404 167.404z" data-fill-palette-color="tertiary" fill="#000000" stroke="transparent"></path><ellipse rx="164.56874808852186" ry="164.56874808852186" cx="171.42577925887693" cy="171.42577925887693" fill="#000000" stroke="transparent" stroke-width="0" fill-opacity="1" data-fill-palette-color="tertiary"></ellipse></g><g transform="matrix(1,0,0,1,64.84655864529837,108.07263986538365)"><svg viewBox="0 0 213.1584412271571 126.70627878698656" height="126.70627878698656" width="213.1584412271571"><g><svg viewBox="0 0 213.1584412271571 126.70627878698656" height="126.70627878698656" width="213.1584412271571"><g><svg viewBox="0 0 213.1584412271571 126.70627878698656" height="126.70627878698656" width="213.1584412271571"><g transform="matrix(1,0,0,1,0,58.00214696178077)"><svg viewBox="0 0 213.1584412271571 68.70413182520579" height="68.70413182520579" width="213.1584412271571"><g id="textblocktransform"><svg viewBox="0 0 213.1584412271571 68.70413182520579" height="68.70413182520579" width="213.1584412271571" id="textblock"><g><svg viewBox="0 0 213.1584412271571 44.5940793243005" height="44.5940793243005" width="213.1584412271571"><g transform="matrix(1,0,0,1,0,0)"><svg width="213.1584412271571" viewBox="-0.5 -34.650001525878906 169.44000244140625 35.45000076293945" height="44.5940793243005" data-palette-color="#242605"><path d="M17.6-34.65L25.55-34.65 16.45-13.05 16.45 0 8.6 0 8.6-13-0.5-34.65 7.7-34.65 12.6-19.15 17.6-34.65ZM50-34.65L50-10Q50-6.9 48.7-4.48 47.4-2.05 44.8-0.63 42.2 0.8 38.4 0.8L38.4 0.8Q32.7 0.8 29.75-2.15 26.8-5.1 26.8-10L26.8-10 26.8-34.65 34.65-34.65 34.65-10.35Q34.65-7.65 35.52-6.35 36.4-5.05 38.4-5.05L38.4-5.05Q40.4-5.05 41.27-6.35 42.15-7.65 42.15-10.35L42.15-10.35 42.15-34.65 50-34.65ZM81.75-34.65L83.8 0 76.4 0 76.09-13.75Q75.95-18.5 75.95-23L75.95-23Q75.95-26.15 76-27.65L76-27.65 72.15-3.7 64.8-3.7 60.75-27.7Q60.84-24.9 60.84-19.9L60.84-19.9Q60.84-15.85 60.8-13.65L60.8-13.65 60.5 0 53.15 0 55.25-34.65 64.95-34.65 68.59-10.95 71.9-34.65 81.75-34.65ZM102.74-34.65L110.69-34.65 101.59-13.05 101.59 0 93.74 0 93.74-13 84.64-34.65 92.84-34.65 97.74-19.15 102.74-34.65ZM135.14-34.65L135.14-10Q135.14-6.9 133.84-4.48 132.54-2.05 129.94-0.63 127.34 0.8 123.54 0.8L123.54 0.8Q117.84 0.8 114.89-2.15 111.94-5.1 111.94-10L111.94-10 111.94-34.65 119.79-34.65 119.79-10.35Q119.79-7.65 120.67-6.35 121.54-5.05 123.54-5.05L123.54-5.05Q125.54-5.05 126.42-6.35 127.29-7.65 127.29-10.35L127.29-10.35 127.29-34.65 135.14-34.65ZM166.89-34.65L168.94 0 161.54 0 161.24-13.75Q161.09-18.5 161.09-23L161.09-23Q161.09-26.15 161.14-27.65L161.14-27.65 157.29-3.7 149.94-3.7 145.89-27.7Q145.99-24.9 145.99-19.9L145.99-19.9Q145.99-15.85 145.94-13.65L145.94-13.65 145.64 0 138.29 0 140.39-34.65 150.09-34.65 153.74-10.95 157.04-34.65 166.89-34.65Z" opacity="1" transform="matrix(1,0,0,1,0,0)" fill="#ffffff" class="undefined-text-0" data-fill-palette-color="quaternary" id="text-0"></path></svg></g></svg></g><g transform="matrix(1,0,0,1,0,55.121671194864064)"><svg viewBox="0 0 213.1584412271571 13.582460630341718" height="13.582460630341718" width="213.1584412271571"><g transform="matrix(1,0,0,1,0,0)"><svg width="213.1584412271571" viewBox="2 -36.54999923706055 717.1500244140625 45.69999694824219" height="13.582460630341718" data-palette-color="#242605"><path d="M31.55-26.9L31.55-26.9Q27.05-26.9 25.23-24.58 23.4-22.25 23.4-17.2L23.4-17.2Q23.4-9.25 28.05-9.25L28.05-9.25Q29-9.25 29.3-9.3L29.3-9.3Q28.7-9.3 28.33-11.4 27.95-13.5 27.95-15.8 27.95-18.1 29.2-18.78 30.45-19.45 32.68-19.45 34.9-19.45 35.77-19.43 36.65-19.4 37.77-19.23 38.9-19.05 39.5-18.7L39.5-18.7Q40.9-17.9 40.9-16.3L40.9-16.3 40.9-9Q40.9-5.1 39.5-2.78 38.1-0.45 34.25-0.05L34.25-0.05Q28.85 0.5 17.75 0.5L17.75 0.5Q13.3 0.5 10.13-0.9 6.95-2.3 5.2-4.8L5.2-4.8Q2-9.45 2-16.63 2-23.8 6.6-29.4 11.2-35 18.85-35.4L18.85-35.4Q24.1-35.7 26.45-35.7L26.45-35.7Q35-35.7 38.6-34.65L38.6-34.65Q41.05-33.95 41.05-30.7L41.05-30.7Q41.05-26.35 38.5-26.35L38.5-26.35Q37.7-26.4 35.3-26.65 32.9-26.9 31.55-26.9ZM61.75-12.5Q61.75-6.9 64.7-6.9 67.65-6.9 67.65-12.5L67.65-12.5Q67.65-15.05 67.05-16.43 66.45-17.8 64.7-17.8 62.95-17.8 62.35-16.43 61.75-15.05 61.75-12.5L61.75-12.5ZM83.35-12.5Q83.35 1.1 64.7 1.1 46.05 1.1 46.05-12.5L46.05-12.5Q46.05-18.95 50.8-22.5 55.55-26.05 64.7-26.05 73.85-26.05 78.6-22.5 83.35-18.95 83.35-12.5L83.35-12.5ZM103.05-12.5Q103.05-6.9 106-6.9 108.95-6.9 108.95-12.5L108.95-12.5Q108.95-15.05 108.35-16.43 107.75-17.8 106-17.8 104.25-17.8 103.65-16.43 103.05-15.05 103.05-12.5L103.05-12.5ZM124.65-12.5Q124.65 1.1 106 1.1 87.35 1.1 87.35-12.5L87.35-12.5Q87.35-18.95 92.1-22.5 96.85-26.05 106-26.05 115.15-26.05 119.9-22.5 124.65-18.95 124.65-12.5L124.65-12.5ZM146.04-17.8L146.04-17.8Q143.09-17.8 143.09-12.93 143.09-8.05 146.04-8.05L146.04-8.05Q147.19-8.05 148.12-8.83 149.04-9.6 149.04-11L149.04-11 149.04-14.85Q149.04-16.25 148.12-17.03 147.19-17.8 146.04-17.8ZM162.54-0.1L162.54-0.1 157.24 0Q154.34 0 153.34-0.1L153.34-0.1Q150.24-0.3 150.24-3.6L150.24-3.6Q148.39-1.5 145.47-0.2 142.54 1.1 140.09 1.1L140.09 1.1Q135.09 1.1 131.87-2.2 128.64-5.5 128.64-12.4L128.64-12.4Q128.64-21 134.49-24.4L134.49-24.4Q137.59-26.25 141.74-26.25 145.89-26.25 148.79-24.4L148.79-24.4Q149.74-23.75 149.84-24.83 149.94-25.9 149.94-28L149.94-28 149.94-32.15Q149.94-33.15 149.99-34.18 150.04-35.2 150.59-35.88 151.14-36.55 152.84-36.55L152.84-36.55 162.44-36.55Q164.09-36.55 164.67-35.75 165.24-34.95 165.29-33.3L165.29-33.3Q165.44-26.2 165.44-18.8L165.44-18.8Q165.44-18.8 165.34-2.45L165.34-2.45Q165.34-1.45 164.42-0.78 163.49-0.1 162.54-0.1ZM190.79-3.5L190.79-3.5 190.74-30.65Q191.14-34.8 194.29-35L194.29-35Q196.54-35.05 224.24-35.05L224.24-35.05Q227.24-35.05 227.24-30.6L227.24-30.6Q227.24-28.35 224.59-28.35L224.59-28.35 213.69-28.35Q212.64-28.35 212.01-27.65 211.39-26.95 211.39-25.8L211.39-25.8 211.39-22.25Q211.39-20.7 212.69-20.7L212.69-20.7 220.99-20.7Q222.19-20.7 222.79-20.15 223.39-19.6 223.39-17.63 223.39-15.65 222.81-15.1 222.24-14.55 220.94-14.55L220.94-14.55 213.49-14.55Q212.24-14.55 211.76-13.95 211.29-13.35 211.29-12.05L211.29-12.05 211.29-3.45Q211.29-1.7 210.54-0.85 209.79 0 208.59 0L208.59 0 194.39 0Q192.99 0 191.99-0.93 190.99-1.85 190.79-3.5ZM246.29-12.5Q246.29-6.9 249.24-6.9 252.19-6.9 252.19-12.5L252.19-12.5Q252.19-15.05 251.59-16.43 250.99-17.8 249.24-17.8 247.49-17.8 246.89-16.43 246.29-15.05 246.29-12.5L246.29-12.5ZM267.89-12.5Q267.89 1.1 249.24 1.1 230.59 1.1 230.59-12.5L230.59-12.5Q230.59-18.95 235.34-22.5 240.09-26.05 249.24-26.05 258.39-26.05 263.14-22.5 267.89-18.95 267.89-12.5L267.89-12.5ZM287.58-12.5Q287.58-6.9 290.53-6.9 293.48-6.9 293.48-12.5L293.48-12.5Q293.48-15.05 292.88-16.43 292.28-17.8 290.53-17.8 288.78-17.8 288.18-16.43 287.58-15.05 287.58-12.5L287.58-12.5ZM309.18-12.5Q309.18 1.1 290.53 1.1 271.88 1.1 271.88-12.5L271.88-12.5Q271.88-18.95 276.63-22.5 281.38-26.05 290.53-26.05 299.68-26.05 304.43-22.5 309.18-18.95 309.18-12.5L309.18-12.5ZM330.58-17.8L330.58-17.8Q327.63-17.8 327.63-12.93 327.63-8.05 330.58-8.05L330.58-8.05Q331.73-8.05 332.66-8.83 333.58-9.6 333.58-11L333.58-11 333.58-14.85Q333.58-16.25 332.66-17.03 331.73-17.8 330.58-17.8ZM347.08-0.1L347.08-0.1 341.78 0Q338.88 0 337.88-0.1L337.88-0.1Q334.78-0.3 334.78-3.6L334.78-3.6Q332.93-1.5 330.01-0.2 327.08 1.1 324.63 1.1L324.63 1.1Q319.63 1.1 316.41-2.2 313.18-5.5 313.18-12.4L313.18-12.4Q313.18-21 319.03-24.4L319.03-24.4Q322.13-26.25 326.28-26.25 330.43-26.25 333.33-24.4L333.33-24.4Q334.28-23.75 334.38-24.83 334.48-25.9 334.48-28L334.48-28 334.48-32.15Q334.48-33.15 334.53-34.18 334.58-35.2 335.13-35.88 335.68-36.55 337.38-36.55L337.38-36.55 346.98-36.55Q348.63-36.55 349.21-35.75 349.78-34.95 349.83-33.3L349.83-33.3Q349.98-26.2 349.98-18.8L349.98-18.8Q349.98-18.8 349.88-2.45L349.88-2.45Q349.88-1.45 348.96-0.78 348.03-0.1 347.08-0.1ZM392.98-32.4Q394.83-30.1 397.23-26.48 399.63-22.85 400.58-21.65 401.53-20.45 402.1-20.45 402.68-20.45 403.13-21.1 403.58-21.75 406.43-26.1 409.28-30.45 411.13-32.73 412.98-35 414.08-35.05 415.18-35.1 416.93-35.1 418.68-35.1 421.03-35 423.38-34.9 424.15-33.77 424.93-32.65 425.08-30.6L425.08-30.6Q425.38-25.35 425.38-16.68 425.38-8 424.93-3L424.93-3Q424.83-1.8 424.03-0.85 423.23 0.1 421.83 0.1L421.83 0.1Q418.78 0.15 415.05 0.15 411.33 0.15 409.13 0L409.13 0Q408.33-0.05 407.7-0.63 407.08-1.2 407.03-2.15L407.03-2.15 406.73-10.4Q406.68-11.6 406.2-11.75 405.73-11.9 405.33-11.1L405.33-11.1Q402.68-6.4 398.73-0.6L398.73-0.6Q397.78 0.85 396.23 0.85 394.68 0.85 393.68-0.6L393.68-0.6Q391.93-3.1 387.73-11.2L387.73-11.2Q387.48-11.7 387.15-11.8 386.83-11.9 386.58-11.55 386.33-11.2 386.33-10.4L386.33-10.4 386.08-2.15Q386.03-1.2 385.23-0.63 384.43-0.05 383.38 0L383.38 0 378.43 0Q377.08-0.05 376.25-0.95 375.43-1.85 375.28-3L375.28-3Q374.88-7.45 374.88-16.82 374.88-26.2 375.13-30.6L375.13-30.6Q375.28-32.7 376.08-33.85 376.88-35 378.93-35L378.93-35Q389.43-35 390.28-34.85 391.13-34.7 392.98-32.4ZM448.97-26.25L448.97-26.25Q465.27-26.25 465.42-15.65L465.42-15.65Q465.52-11.15 465.52-7.4 465.52-3.65 465.47-2.35 465.42-1.05 464.8-0.48 464.17 0.1 462.37 0.1L462.37 0.1 451.77 0.1Q450.17 0.1 449.57-0.48 448.97-1.05 448.92-2.2L448.92-2.2Q448.92-2.25 448.9-2.38 448.87-2.5 448.87-2.6L448.87-2.6Q445.57 0.8 439.87 0.8L439.87 0.8Q435.92 0.8 433.15-1.18 430.37-3.15 430.37-6.63 430.37-10.1 432.35-12.18 434.32-14.25 437.05-15 439.77-15.75 442.9-15.75 446.02-15.75 449.02-15.15L449.02-15.15 449.02-15.35Q449.02-17.85 448.05-18.95 447.07-20.05 444.9-20.05 442.72-20.05 441.27-19.68 439.82-19.3 439.07-18.9L439.07-18.9Q437.02-17.7 436.22-17.7 435.42-17.7 434.8-18.45 434.17-19.2 434.17-20.78 434.17-22.35 434.75-22.95 435.32-23.55 436.57-24.15L436.57-24.15Q440.92-26.25 448.97-26.25ZM446.62-5.8L446.62-5.8Q448.82-5.8 448.87-6.65L448.87-6.65Q448.97-8.3 448.97-11L448.97-11Q448.97-12.05 447.37-12.05 445.77-12.05 444.77-11.28 443.77-10.5 443.77-9 443.77-7.5 444.6-6.65 445.42-5.8 446.62-5.8ZM487.92-17.8L487.92-17.8Q484.97-17.8 484.97-12.93 484.97-8.05 487.92-8.05L487.92-8.05Q489.07-8.05 490-8.83 490.92-9.6 490.92-11L490.92-11 490.92-14.85Q490.92-16.25 490-17.03 489.07-17.8 487.92-17.8ZM504.42-0.1L504.42-0.1 499.12 0Q496.22 0 495.22-0.1L495.22-0.1Q492.12-0.3 492.12-3.6L492.12-3.6Q490.27-1.5 487.35-0.2 484.42 1.1 481.97 1.1L481.97 1.1Q476.97 1.1 473.75-2.2 470.52-5.5 470.52-12.4L470.52-12.4Q470.52-21 476.37-24.4L476.37-24.4Q479.47-26.25 483.62-26.25 487.77-26.25 490.67-24.4L490.67-24.4Q491.62-23.75 491.72-24.83 491.82-25.9 491.82-28L491.82-28 491.82-32.15Q491.82-33.15 491.87-34.18 491.92-35.2 492.47-35.88 493.02-36.55 494.72-36.55L494.72-36.55 504.32-36.55Q505.97-36.55 506.55-35.75 507.12-34.95 507.17-33.3L507.17-33.3Q507.32-26.2 507.32-18.8L507.32-18.8Q507.32-18.8 507.22-2.45L507.22-2.45Q507.22-1.45 506.3-0.78 505.37-0.1 504.42-0.1ZM519.72-23.93Q522.02-25.05 524.44-25.55 526.87-26.05 530.44-26.05 534.02-26.05 537.27-25.18 540.52-24.3 542.12-22.8L542.12-22.8Q544.92-20.05 544.92-16.35L544.92-16.35Q544.92-10.55 535.12-10.55L535.12-10.55Q531.67-10.55 527.97-11.2L527.97-11.2Q528.12-7.9 529.19-6.55 530.27-5.2 533.02-5.2 535.77-5.2 537.57-5.8 539.37-6.4 540.47-7.03 541.57-7.65 542.34-7.65 543.12-7.65 543.67-6.95L543.67-6.95Q544.52-6.05 544.52-4.48 544.52-2.9 543.89-2.33 543.27-1.75 541.92-1.2L541.92-1.2Q537.17 0.8 528.42 0.8L528.42 0.8Q521.17 0.8 516.49-2.68 511.82-6.15 511.82-12.05L511.82-12.05Q511.82-14.9 512.87-17.28 513.92-19.65 515.67-21.23 517.42-22.8 519.72-23.93ZM531.32-20.35L531.32-20.35Q528.27-20.35 528.02-15.4L528.02-15.4Q530.42-15.2 530.52-15.2L530.52-15.2Q533.82-15.2 533.82-17.4L533.82-17.4Q533.82-20.35 531.32-20.35ZM573.61 0Q572.21 0 571.24-0.93 570.26-1.85 569.99-3.98 569.71-6.1 569.71-16.73 569.71-27.35 570.06-30.6L570.06-30.6Q570.46-34.8 573.61-34.9L573.61-34.9Q577.21-35 603.46-35L603.46-35Q606.41-35 606.41-31.25L606.41-31.25Q606.41-28.3 603.81-28.3L603.81-28.3 592.81-28.3Q591.76-28.3 591.14-27.6 590.51-26.9 590.51-25.8L590.51-25.8 590.51-22.2Q590.51-20.7 591.86-20.7L591.86-20.7 600.96-20.7Q601.76-20.7 602.19-20.55 602.61-20.4 602.96-19.68 603.31-18.95 603.31-17.3 603.31-15.65 602.74-15.1 602.16-14.55 600.86-14.55L600.86-14.55 592.71-14.55Q591.46-14.55 590.99-13.93 590.51-13.3 590.51-12L590.51-12 590.51-9.55Q590.51-7.4 592.56-7.4L592.56-7.4 605.01-7.4Q605.91-7.4 606.61-6.88 607.31-6.35 607.31-4.58 607.31-2.8 606.46-1.4 605.61 0 604.46 0L604.46 0 573.61 0ZM629.71-26.25L629.71-26.25Q646.01-26.25 646.16-15.65L646.16-15.65Q646.26-11.15 646.26-7.4 646.26-3.65 646.21-2.35 646.16-1.05 645.53-0.48 644.91 0.1 643.11 0.1L643.11 0.1 632.51 0.1Q630.91 0.1 630.31-0.48 629.71-1.05 629.66-2.2L629.66-2.2Q629.66-2.25 629.63-2.38 629.61-2.5 629.61-2.6L629.61-2.6Q626.31 0.8 620.61 0.8L620.61 0.8Q616.66 0.8 613.88-1.18 611.11-3.15 611.11-6.63 611.11-10.1 613.09-12.18 615.06-14.25 617.78-15 620.51-15.75 623.63-15.75 626.76-15.75 629.76-15.15L629.76-15.15 629.76-15.35Q629.76-17.85 628.78-18.95 627.81-20.05 625.63-20.05 623.46-20.05 622.01-19.68 620.56-19.3 619.81-18.9L619.81-18.9Q617.76-17.7 616.96-17.7 616.16-17.7 615.53-18.45 614.91-19.2 614.91-20.78 614.91-22.35 615.49-22.95 616.06-23.55 617.31-24.15L617.31-24.15Q621.66-26.25 629.71-26.25ZM627.36-5.8L627.36-5.8Q629.56-5.8 629.61-6.65L629.61-6.65Q629.71-8.3 629.71-11L629.71-11Q629.71-12.05 628.11-12.05 626.51-12.05 625.51-11.28 624.51-10.5 624.51-9 624.51-7.5 625.34-6.65 626.16-5.8 627.36-5.8ZM663.26-6.55L663.26-6.55Q663.26-7.95 662.08-8.75 660.91-9.55 659.23-9.98 657.56-10.4 655.86-10.98 654.16-11.55 652.98-12.98 651.81-14.4 651.81-16.75L651.81-16.75Q651.81-26.05 666.26-26.05L666.26-26.05Q672.46-26.05 676.21-23.95L676.21-23.95Q677.41-23.3 677.91-22.73 678.41-22.15 678.41-20.7 678.41-19.25 677.83-18.53 677.26-17.8 676.68-17.8 676.11-17.8 674.18-18.93 672.26-20.05 670.21-20.1L670.21-20.1Q668.56-20.1 668.56-18.45L668.56-18.45Q668.56-17.35 669.71-16.7 670.86-16.05 672.51-15.58 674.16-15.1 675.81-14.43 677.46-13.75 678.61-12.18 679.76-10.6 679.76-8.2L679.76-8.2Q679.76 1.1 665.31 1.1L665.31 1.1Q658.26 1.1 653.81-0.95L653.81-0.95Q652.46-1.5 651.86-2.08 651.26-2.65 651.26-4.17 651.26-5.7 651.88-6.35 652.51-7 652.93-7 653.36-7 655.81-5.9 658.26-4.8 660.76-4.8 663.26-4.8 663.26-6.55ZM687.25 1.95L688.35 1.95Q694.95 1.95 694.95 0L694.95 0Q694.95-0.65 694.15-1.95L694.15-1.95Q690.5-7.65 683.35-21.6L683.35-21.6Q682.8-22.75 682.8-23.4L682.8-23.4Q682.8-25.45 684.85-25.45L684.85-25.45 695.85-25.45Q697.45-25.45 698.28-24.95 699.1-24.45 699.85-23.05L699.85-23.05 704.5-14.35Q704.8-13.75 705.35-13.75 705.9-13.75 706.2-14.35L706.2-14.35 711-24.3Q711.45-25.3 712.05-25.4L712.05-25.4Q712.25-25.4 712.8-25.45L712.8-25.45 718.05-25.45Q718.75-25.45 719.05-24.8L719.05-24.8Q719.15-24.5 719.15-24.13 719.15-23.75 718.78-23.03 718.4-22.3 715-15.05 711.6-7.8 709.83-4.4 708.05-1 707.33 0.25 706.6 1.5 705.4 3.23 704.2 4.95 703.1 5.83 702 6.7 700.35 7.6L700.35 7.6Q697.45 9.15 692.93 9.15 688.4 9.15 686.95 8.38 685.5 7.6 685.5 5L685.5 5Q685.5 3.75 685.98 2.85 686.45 1.95 687.25 1.95L687.25 1.95Z" opacity="1" transform="matrix(1,0,0,1,0,0)" fill="#ffffff" class="undefined-text-1" data-fill-palette-color="quaternary" id="text-1"></path></svg></g></svg></g></svg></g></svg></g><g transform="matrix(1,0,0,1,82.8416431193468,0)"><svg viewBox="0 0 47.47515498846353 47.474555091217205" height="47.474555091217205" width="47.47515498846353"><g><svg xmlns="http://www.w3.org/2000/svg" xmlns:xlink="http://www.w3.org/1999/xlink" version="1.1" x="0" y="0" viewBox="0 0 32.000404357910156 32" enable-background="new 0 0 32 32" xml:space="preserve" width="47.47515498846353" height="47.474555091217205" class="icon-icon-0" data-fill-palette-color="quaternary" id="icon-0"><g fill="#242605" data-fill-palette-color="quaternary"><path fill="#ffffff" d="M29.5 21h-2.691c-0.045-0.239-0.1-0.473-0.16-0.706l4.799-2.399c0.494-0.247 0.693-0.848 0.447-1.342-0.248-0.494-0.846-0.692-1.342-0.447l-4.578 2.288C24.229 14.626 20.42 12 16 12c-5.382 0-9.865 3.888-10.809 9H2.5C1.122 21 0 22.121 0 23.5c0 0.49 0.18 0.963 0.505 1.329L4 28.761V29.5C4 30.879 5.122 32 6.5 32h19c1.379 0 2.5-1.121 2.5-2.5v-0.739l3.494-3.932C31.82 24.463 32 23.99 32 23.5 32 22.121 30.879 21 29.5 21zM25.799 21h-0.562l0.498-0.25C25.754 20.834 25.781 20.915 25.799 21zM16 13c4.029 0 7.5 2.4 9.082 5.841l-0.891 0.445C22.775 16.171 19.645 14 16 14c-4.282 0-7.859 2.993-8.77 7H6.202C7.131 16.441 11.171 13 16 13zM20.576 21c-0.773-1.763-2.531-3-4.576-3s-3.802 1.237-4.576 3H10.35c0.826-2.326 3.043-4 5.65-4 2.465 0 4.588 1.496 5.508 3.627L20.764 21H20.576zM16 20c-0.883 0-1.67 0.391-2.22 1h-1.224c0.694-1.189 1.97-2 3.444-2 1.473 0 2.75 0.811 3.443 2h-1.225C17.67 20.391 16.883 20 16 20zM16 16c-3.165 0-5.842 2.112-6.705 5H8.263c0.892-3.444 4.017-6 7.737-6 3.246 0 6.043 1.948 7.295 4.734l-0.893 0.446C21.314 17.723 18.855 16 16 16zM26 28v1.5c0 0.276-0.225 0.5-0.5 0.5h-19C6.224 30 6 29.776 6 29.5V28l-4-4.5C2 23.224 2.224 23 2.5 23H5h1 1 1 1 1 1 1 1 6 1 1 1 1 1 1 1 1 2.5c0.275 0 0.5 0.224 0.5 0.5L26 28z" data-fill-palette-color="quaternary"></path><path fill="#ffffff" d="M7.977 11.712c0.003 0.006 0.005 0.012 0.008 0.018 0 0 0.001 0 0.002 0C8.07 11.89 8.236 12 8.43 12c0.277 0 0.502-0.226 0.502-0.503 0-0.043-0.007-0.085-0.018-0.125 0.002-0.007 0.002-0.013 0-0.02-0.375-0.882-0.019-1.85 0.419-2.892 0.473-1.126 0.98-2.376 0.422-3.647C9.684 4.63 9.507 4.5 9.299 4.5c-0.271 0-0.49 0.22-0.49 0.49 0 0.06 0.012 0.116 0.032 0.169 0 0.002 0 0.004 0.001 0.006 0.001 0.003 0.002 0.006 0.003 0.009C8.847 5.178 8.848 5.182 8.85 5.186c0.404 0.909 0.013 1.841-0.428 2.893C7.956 9.188 7.44 10.417 7.959 11.67 7.965 11.685 7.97 11.698 7.977 11.712z" data-fill-palette-color="quaternary"></path><path fill="#ffffff" d="M20.154 11.566c0.004 0.006 0.006 0.012 0.008 0.018h0.002c0.084 0.16 0.25 0.271 0.443 0.271 0.277 0 0.504-0.226 0.504-0.503 0-0.043-0.008-0.085-0.018-0.125 0.002-0.007 0.002-0.013-0.002-0.02-0.373-0.882-0.018-1.85 0.42-2.892 0.473-1.126 0.98-2.376 0.422-3.647-0.072-0.184-0.248-0.313-0.457-0.313-0.27 0-0.49 0.22-0.49 0.49 0 0.06 0.014 0.116 0.033 0.169 0 0.002 0 0.004 0 0.006 0.002 0.003 0.002 0.006 0.004 0.009 0.002 0.004 0.004 0.008 0.004 0.012 0.404 0.909 0.014 1.841-0.428 2.893-0.465 1.109-0.98 2.339-0.461 3.592C20.143 11.539 20.148 11.553 20.154 11.566z" data-fill-palette-color="quaternary"></path><path fill="#ffffff" d="M15.019 7.212c0.003 0.006 0.005 0.012 0.008 0.018 0 0 0.001 0 0.002 0 0.084 0.16 0.25 0.271 0.443 0.271 0.277 0 0.502-0.226 0.502-0.503 0-0.043-0.007-0.085-0.018-0.125 0.002-0.007 0.002-0.013 0-0.02-0.375-0.882-0.019-1.85 0.419-2.892 0.473-1.126 0.98-2.376 0.422-3.647C16.725 0.13 16.549 0 16.34 0c-0.27 0-0.49 0.22-0.49 0.49 0 0.06 0.012 0.116 0.032 0.169 0 0.002 0 0.004 0.001 0.006 0.001 0.003 0.002 0.006 0.003 0.009 0.001 0.004 0.003 0.008 0.004 0.012 0.404 0.909 0.013 1.841-0.428 2.893-0.466 1.109-0.982 2.339-0.462 3.592C15.007 7.185 15.012 7.198 15.019 7.212z" data-fill-palette-color="quaternary"></path></g></svg></g></svg></g><g></g></svg></g></svg></g></svg></g></svg></g><defs></defs></svg><rect width="342.85155851775386" height="342.85155851775386" fill="none" stroke="none" visibility="hidden"></rect></g></svg></g></svg>